<svg width="20" height="20" viewBox="0 0 20 20" fill="none" xmlns="http://www.w3.org/2000/svg">
<path d="M11.0005 7.00006C13.4645 7.00006 14.8635 8.57306 15.0665 10.4741H15.1285C16.7145 10.4741 18.0005 11.7111 18.0005 13.2371C18.0005 14.7631 16.7145 16.0001 15.1285 16.0001H6.87249C5.28649 16.0001 4.00049 14.7631 4.00049 13.2371C4.00049 11.7111 5.28649 10.4741 6.87249 10.4741H6.93449C7.13849 8.56006 8.53549 7.00006 11.0005 7.00006ZM11.0005 8.00006C9.35049 8.00006 7.91349 9.27006 7.91349 11.0251C7.91349 11.3031 7.65949 11.5211 7.36849 11.5211H6.81849C5.81449 11.5201 5.00049 12.3001 5.00049 13.2601C5.00049 14.2201 5.81449 15.0001 6.81849 15.0001H15.1825C16.1865 15.0001 17.0005 14.2201 17.0005 13.2601C17.0005 12.3001 16.1865 11.5201 15.1825 11.5201H14.6325C14.3415 11.5211 14.0875 11.3031 14.0875 11.0251C14.0875 9.24806 12.6495 8.00006 11.0005 8.00006ZM3.80349 9.70006C3.84193 9.81093 3.84016 9.93178 3.79848 10.0415C3.75679 10.1512 3.67786 10.2427 3.57549 10.3001L3.49349 10.3361L2.69249 10.6121C2.57428 10.6534 2.44486 10.6489 2.32981 10.5994C2.21476 10.55 2.12247 10.4591 2.07119 10.3449C2.0199 10.2306 2.01336 10.1013 2.05286 9.98243C2.09236 9.86358 2.17502 9.76389 2.28449 9.70306L2.36649 9.66706L3.16849 9.39106C3.29381 9.34805 3.43107 9.35655 3.55013 9.41467C3.66919 9.4728 3.76032 9.5758 3.80349 9.70106M8.92049 5.50006C9.25349 5.66206 9.54549 5.87306 9.79449 6.12006C9.38782 6.20406 9.00916 6.32906 8.65849 6.49506C8.20685 6.22321 7.67496 6.11626 7.15334 6.19241C6.63173 6.26856 6.15261 6.52311 5.79754 6.91273C5.44246 7.30234 5.23336 7.80296 5.20582 8.32939C5.17828 8.85581 5.334 9.37552 5.64649 9.80006C5.31649 9.89806 5.00649 10.0411 4.72149 10.2201C4.33487 9.61782 4.15584 8.90565 4.21168 8.19217C4.26753 7.47869 4.5552 6.80306 5.03081 6.2683C5.50642 5.73355 6.14388 5.36903 6.84597 5.23032C7.54806 5.09162 8.27625 5.18634 8.91949 5.50006M2.91649 5.67006L3.00049 5.70206L3.76249 6.07306C3.87482 6.12767 3.96265 6.22234 4.00869 6.33845C4.05473 6.45456 4.05564 6.5837 4.01125 6.70045C3.96685 6.81719 3.88037 6.9131 3.76882 6.96929C3.65727 7.02548 3.52873 7.03788 3.40849 7.00406L3.32349 6.97206L2.56249 6.60106C2.45016 6.54645 2.36233 6.45178 2.31629 6.33567C2.27025 6.21956 2.26934 6.09042 2.31373 5.97367C2.35813 5.85692 2.44461 5.76102 2.55616 5.70483C2.66771 5.64864 2.79625 5.63623 2.91649 5.67006ZM9.98949 3.29506C10.0948 3.34643 10.1787 3.43314 10.2266 3.54005C10.2744 3.64697 10.2833 3.7673 10.2515 3.88006L10.2195 3.96406L9.84849 4.72606C9.79388 4.83839 9.69921 4.92622 9.5831 4.97226C9.46699 5.01829 9.33785 5.01921 9.2211 4.97481C9.10435 4.93042 9.00845 4.84394 8.95226 4.73239C8.89607 4.62084 8.88367 4.4923 8.91749 4.37206L8.94949 4.28706L9.32049 3.52506C9.34929 3.46588 9.38949 3.41297 9.43878 3.36937C9.48807 3.32576 9.54549 3.29231 9.60773 3.27094C9.66998 3.24958 9.73583 3.24071 9.80152 3.24484C9.8672 3.24898 9.93042 3.26605 9.98949 3.29506ZM6.20049 3.26306L6.23749 3.34506L6.51349 4.14706C6.55406 4.26511 6.54901 4.39408 6.49932 4.50859C6.44962 4.62311 6.35889 4.7149 6.24496 4.76591C6.13103 4.81692 6.00213 4.82347 5.88362 4.78427C5.7651 4.74507 5.66553 4.66295 5.60449 4.55406L5.56749 4.47206L5.29249 3.67106C5.25255 3.55328 5.25794 3.42485 5.30761 3.31083C5.35727 3.19681 5.44764 3.1054 5.56108 3.05442C5.67452 3.00345 5.80288 2.99658 5.92111 3.03516C6.03934 3.07374 6.13895 3.15499 6.20049 3.26306Z" fill="#1C1816"/>
</svg>
